<svg id="facebook-logo" xmlns="http://www.w3.org/2000/svg" width="15.45" height="28.577" viewBox="0 0 15.45 28.577">
  <path id="Tracé_7" data-name="Tracé 7" d="M36.946.006,33.24,0c-4.163,0-6.854,2.76-6.854,7.033v3.243H22.66a.583.583,0,0,0-.583.583v4.7a.583.583,0,0,0,.583.583h3.726V27.995a.583.583,0,0,0,.583.583H31.83a.583.583,0,0,0,.583-.583V16.14h4.357a.583.583,0,0,0,.583-.583l0-4.7a.583.583,0,0,0-.583-.583H32.413V7.527c0-1.321.315-1.992,2.036-1.992h2.5a.583.583,0,0,0,.582-.583V.589A.583.583,0,0,0,36.946.006Z" transform="translate(-22.077)" fill="#fff"/>
</svg>
