<svg xmlns="http://www.w3.org/2000/svg" width="1228" height="1080" viewBox="0 0 1228 1080">
  <path id="Tracé_230" data-name="Tracé 230" d="M976.614,1049.445l82.226,14.121L1055.518,1080h14.95l35.853-179.8,8.306,179.8h14.812l-2.769-60.622,37.653-.974,3.876,61.6h7.337l-3.876-61.718,56.34-1.339v-12.9l-46.374,1.1-3.6-21.789L1228,984.684v-6.452l-51.08-1.339L1170,934.653l30.177-29.216,27.686,15.46v-7.791l-22.7-12.66,22.7-22.034V868.8l-59.386,57.7c-3.184-15.947-11.074-56.606-14.4-73.769L1228,863.8V850.658l-36.822-5.6,8.721-48.328c9.828,1.826,19.242,3.531,28.1,5.113V788.575l-21.041-3.774L1228,761.307V740.248l-37.1,41.632-48.034-8.765,20.487-126.357,64.508,10.226V635.072l-6.783-1.1,6.783-40.78V504.333l-7.475,45.041-68.661-14.608c3.46-15.947,12.6-58.188,16.058-74.256l60.078,9.982V457.345l-38.76-6.452,30.593-146.443,8.167,1.339V283.756l-20.072-3.287,5.4-32.989,14.674-2.678v-6.573l-13.566,2.435,11.905-72.8,1.661.243V5.478l-4.43,26.9-45.958,2.435L1175.4.122h-7.337l2.215,35.18-39.037,2.069-1.8-37.25h-14.812l1.8,38.1L1062.3,41.145,1070.468.122h-14.95l-7.891,39.806L965.955,20.816,970.246.122H945.329l-8.306,39.684-56.2,8.4L873.9.122H859.088l7.06,50.153-54.956,8.156L787.659,16.19C801.64,12.66,825.173,6.573,850.644.122H797.9l-16.75,4.261L778.661.122H751.252l5.676,10.225c-8.583,2.069-20.072,4.869-31.424,7.669-1.8-4.382-4.291-10.834-7.2-18.016h-7.752l7.891,19.72c-13.7,3.287-25.886,6.33-30.731,7.547l-35.438-9.739L654.629.122h-7.475l-1.938,15.46L599.949,3.287,601.2.122H585.553L579.6,14.364,540.84.122H527.274L515.231,27.268l-55.51-16.921q3.53-5.113,6.645-10.225H449.2A270.231,270.231,0,0,1,422.207,35.3L415.563.122h-14.95l1.8,9.739-36.96,19.355L345.933.122H337.35l45.82,68.291c-1.107.609-2.215,1.339-3.184,1.948-14.673,8.4-33.777,14.608-55.648,19.234L331.675.122h-7.337l-7.475,91.055c-8.029,1.583-16.335,2.8-24.917,4.017L283.917.122H269.105l2.63,32.137-88.456-9.5L182.726.122H167.914l.554,21.181-20.349-2.191L126.247.122H115.726l20.487,17.651L61.739,9.86,63.123.122H55.648L54.4,9.008,24.779,5.843,25.748.122H.831L0,5.478V168.111l63.677,10.225,10.936,46.258L0,238.228V244.8l22.287-4.139,7.2,47.962L0,283.756v22.034l32.392,5.356L7.752,458.318,0,457.1v13.147l5.537.974L0,504.333V593.2l20.072-119.54L89.425,485.1,71.014,646.271,0,635.072v21.912l65.2,10.225L0,740.248v20.938l64.646-72.552L46.927,797.1,0,788.575v13.269c18.965,3.408,34.884,6.33,44.851,8.156l-7.475,46.258L0,850.658V863.8l4.43.731L0,868.674v9.616l13.012-12.66L35.3,869.04,25.748,927.47,0,913.106v7.67l24.64,13.755-7.2,44.067L0,978.111v6.452l16.335.487-3.045,18.5L0,1003.918v12.9l11.213-.243-10.382,63.3H25.609l10.105-62.327,28.1,3.286-8.306,59.04h7.475l5.676-40.415,47.066,40.415h10.521l-56.34-48.571,1.384-9.617,95.377,11.2,1.246,46.988h14.812l-1.246-45.283,84.718,9.981,2.907,35.3h14.812l-1.523-18.138,44.02-6.573L324.338,1080h7.337l.554-7.425,4.983,7.425h8.583l-12.6-18.868.554-7.061,60.216-9.008L400.612,1080h14.95L394.8,970.442,499.727,977.5c-11.49,30.92-28.378,68.9-50.526,102.5h17.165a461.006,461.006,0,0,0,24.225-43.823l48.727,16.434L527.136,1080H540.7l-4.845-1.826,24.5-55.144,44.851,9.252-19.657,47.6H601.2l37.376-90.325,20.349-2.191L647.154,1080h7.475l4.707-37.006,33.361-8.034,18,45.041h7.752c-6.921-17.164-15.5-38.711-18.688-46.745l22.425-5.356,29.07,52.1h27.409L766.2,1057.6l97.731-26.659-5.4,33.6L797.9,1079.879h52.741c2.769-.731,5.4-1.339,8.167-2.069l.277,2.069H873.9l-.831-5.722c30.039-7.669,59.663-15.216,77.382-19.842l-5.4,25.564h24.917Zm-13.289-56L886.358,984.2l7.752-47.84,78.627,11.808ZM798.733,908.968l5.26-26.294L885.8,896.186l-4.153,25.2Zm80.842,25.2-3.322,20.451L822.127,947.8l5.4-21.3ZM606.456,908.6l-36.268-.852,5.537-27.511,30.731,13.025a45.176,45.176,0,0,0-.692,7.548A29.255,29.255,0,0,0,606.456,908.6Zm11.213,21.912a46.491,46.491,0,0,0,6.506,5.844l-27.686,32.015L570.326,929.3ZM615.73,873.3,545.824,843.72l76-24.468,11.49,40.293A52.548,52.548,0,0,0,615.73,873.3ZM130.815,804.765l9-17.773L251.663,763.5l-15.919,49.058Zm101.33,20.573-7.475,33.72-27.27-6.087,1.938-30.068ZM76.413,111.019c24.779,1.583,53.71,3.043,83.888,3.408l-.277,6.452-87.21,23.738ZM46.235,95.681l8.306-41.023,80.15,8.886c-.831,7.669-3.045,26.9-4.153,37.006C98.423,99.454,69.076,97.628,46.235,95.681ZM236.3,182.11l9.552,74.621c-21.872,2.191-87.625,8.886-111.02,11.321l10.244-78.273Zm-76.689-54.292-2.353,47.962-18.549,1.583-17.165-2.8L116.557,139.5Zm86.933,135.365,3.461,26.9-119.879,12.9,3.738-28.363Zm504.987-5.234-13.566,42.241-55.925,18.99c-8.167-20.086-14.673-39.806-18.273-51.736ZM674.7,217.169l42.913-4.626,4.706,26.781-44.159,4.747ZM888.019,491.916,836.109,481.2l25.886-71.213,44.574,7.3C903.385,430.442,895.495,462.214,888.019,491.916Zm25.886-73.526,54.818,9.008-71.706,58.918ZM424.284,433.242l84.857-7.06,9.275,32.38L416.808,461.24Zm0-56.362,77.658,23.859,3.6,12.66-74.89,6.208Zm386.077,104.2-13.843,38.1-60.493-21.06,16.2-35.667Zm-55.51-24.59,13.981-30.92c20.764,10.469,40.975,19.72,52.6,24.833l-8.859,24.468ZM715.26,508.959l-28.378-21.181,34.192-42.606,17.857,11.443Zm-2.907,6.33-1.384,3.043-71.429,5.356-35.853-42,35.576-21.059Zm-80.012,10.956L571.987,556.8l-13.843-48.084L597.6,485.464C604.1,493.133,625.144,517.723,632.342,526.244Zm-33.223-49.666c-3.045-3.408-8.86-9.86-13.012-14.486l29.762-18.868,17.442,13.025Zm-6.091,3.652-36.822,21.79-5.122-17.651,29.07-18.381ZM553.3,579.806l-64.923-16.921L537.1,523.566ZM480.07,560.694l-83.749-21.912,18.826-71.091,105.206-2.678,14.812,51.493ZM388.984,423.138l-11.49-85.577L410.3,333.3l13.012,86.916Zm-.692,13.025,28.239-2.313L402.966,485.1,375,477.187ZM401.3,491.429l-12.043,45.527-30.87-8.034,14.673-45.406Zm-8.029,60.135L353.408,647l-29.624-10.834,30.593-94.829Zm7.06,1.826,38.345,9.982-16.473,43.336c-10.936-2.921-31.285-8.521-39.591-10.834Zm33.5,63.544c7.475,2.313,20.487,6.33,35.853,11.078l-24.225,48.814-32.946-3.408Zm2.215-6.208,16.611-43.7,56.894,14.851-13.7,47.232Zm80.566-26.9,40.7,10.713,16.888,58.8L502.773,631.3Zm57.171-20.451,31.423-15.947,15.365,48.206-40.144-9.008Zm38.068-19.355,27.132-13.756,69.076-5.235-37.1,81.682-41.944-9.373Zm91.363,26.659,33.084,9.738L724.4,619l-39.037-8.765Zm2.63-6.087,27.409-60.379,60.909,21.181-21.456,58.8Zm90.948,24.346,61.739,9.738-51.772,75.96-31.838-25.442Zm7.614-20.694,29.485-80.951,52.6,10.956c-5.26,21.3-10.105,40.536-12.32,49.788l-45.958,23.981Zm88.456-65.248,22.01,23.616L882.9,543.287Zm-66.861-65c-24.5-10.956-80.15-36.763-105.759-56.118a40.632,40.632,0,0,1-3.6-3.043l59.247-44.675,66.446,59.04Zm-89.286-91.3-19.38-32.624,22.841-7.791,25.056,18.747Zm-5.814,4.382L707.785,368.6c-8.582-11.564-16.473-27.268-23.256-43.215l25.886-8.765Zm-20.211,40.658c11.351,8.643,27.963,18.26,45.266,27.268l-14.12,31.285-68.245-43.458,31.562-19.964A66.088,66.088,0,0,0,710.692,391.731Zm4.43,49.545-33.915,42.241L622.1,439.45l45.128-28.607Zm-89.978-19.72-13.151-38.467,32.669-13.756,13.7,31.285Zm-15.366-44.8-10.521-30.676,23.118-27.633,19.657,44.675Zm2.768,52.71-65.2,41.267-23.533-82.169,70.737-11.93Zm-90.671-47.11L494.19,285.582l66.584-7.182,31.562,91.907Zm-22.149,10.834L423.176,369.7l-5.537-37.372,62.293-8.156ZM376.664,331.109l-4.43-32.381L469.55,288.26l8.583,29.7Zm-8.721-53.684-7.475-28,103.96,4.261,3.876,12.9Zm5.26,138.408L303.3,345.23l-2.907-38.711,57.171-6.208ZM297.621,284.973l-4.983-27.755c19.8-2.678,42.082-5.721,53.018-7.182l7.752,28.972Zm-4.568,22.277,2.769,36.4-31.008,2.678,1.107-36.032Zm5.122,42.606L372.1,424.477l-109.912,9.13,2.353-80.951C274.5,351.925,292.361,350.343,298.175,349.856ZM372.511,437.5,311.88,625.09l-29.762-14.73,63.262-170.667Zm-52.88,211.2,75.859,27.877-8.444,22.277-74.059-29.824Zm40.421.852,19.8-47.475,39.867,10.834L400.2,664.288ZM409.887,679.5l33.5,3.53-7.614,43.7L400.2,705.311Zm41.252,1.583,25.471-51.005c20.072,6.208,43.051,13.269,62.847,19.355l-22.287,99.941-28.239,9.5-46.512-28.12Zm112.127,66.587,12.458,39.319L523.26,806.226,499.312,769.22Zm-37.929-1.1,21.18-95.072c12.043,3.652,22.564,6.938,30.039,9.252l18,62.57Zm59.247-145.713,81.95,18.382-21.18,24.59-45.266,11.321Zm89.84,20.208,77.382,17.408L665.565,677.07l-13.7-29.824Zm57.032-.609,11.767-38.1,27.27,8.034-13.151,35.911Zm40.975,35.545,69.214,55.144-5.122,8.643C801.5,713.832,770.77,708.72,754.3,705.92ZM812.3,679.017l53.987-79.125,37.376,5.965-58.694,99.333Zm99.115-72.065,11.905,1.948L900.063,730.509c-18.688-3.165-37.791-6.452-56.063-9.5Zm4.153,81.925L976.2,701.659,968.862,742.2c-18.273-3.043-39.452-6.7-61.462-10.347Zm9.136,59.04,41.113,6.939-18.273,66.952-33.915-6.087Zm48.45,8.156,38.483,6.452-14.258,68.048-42.5-7.547Zm2.907-12.66,7.337-40.78,40.144,2.8-9.275,44.432C1005.268,748.282,991.979,746.091,976.06,743.413Zm8.444-47.232,4.983-27.268,40.7,4.991-5.26,25.2Zm6.091-33.72,7.475-41.754,41.667,6.574-8.444,40.171Zm-13.289,32.746-60.493-12.66,13.843-72.43,60.355,9.495ZM850.367,575.424l73.921-38.589,54.68,58.918Zm80.289-42,96.07-50.275,21.456,23.007L951.973,556.19Zm-9.413-10.1L895.91,496.055l80.981-66.344,40.421,43.458ZM979.8,381.993l-57.586-6.7c1.8-9.617,3.461-18.5,4.291-23.129l56.894,10.1Zm-1.107,6.452L973.845,415.1l-57.171-9.5c1.107-5.843,2.769-14.851,4.43-23.981Zm-69.353,16.069-42.774-7.06,19.1-52.466,33.638,5.965Zm-61.878-25.2L787.1,325.631l47.2-35.667,39.175,17.651Zm-76.551-58.553-25.886-19.355,14.258-44.31,88.041-9.495a44.352,44.352,0,0,0,5.4,11.443Zm-33.915-83.021-11.628-65.857,49.973-6.817L787.1,232.385ZM696.3,376.515,664.6,396.6l-36.96-84.238,25.332-30.189C661.412,308.224,677.054,350.83,696.3,376.515Zm-99.669-38.1-21.041-61.474,73.367-7.913c.415,1.583.969,3.287,1.523,5.113ZM585,254.053l-23.671,2.556-40.283-56.849L585.138,191Zm-31.7,3.408-61.462,6.573L516.2,205.117Zm-73.229-2.8L447.124,142.791l70.322,21.79Zm-17.442-7.547L405.457,244.8l-15.227-75.6,48.311-4.017Zm-64.785-2.678-39.037-1.583L340.4,173.345l42.359-3.53Zm-53.849-.73-52.6,7.06-4.983-27.755,50.526-5.965Zm-53.71,42.119-25.609,2.8-3.461-27.146c5.676-.73,14.4-1.948,24.087-3.287ZM261.768,446.754l75.582-6.33L298.867,544.139,259.277,529.9Zm34.884,103.594L275.2,608.291l-18-2.557,2.076-68.778ZM272.843,614.5l-17.3,46.745,1.384-49.058C262.184,612.917,268.69,613.891,272.843,614.5Zm6.921,2.191L309.8,631.542l-31.839,98.6L253.74,719.919l1.107-35.911Zm31.285,58.675,73.644,29.7-22.979,60.5-70.183-29.7Zm86.656,36.276,82.919,50.032-71.429,23.981L375,771.168Zm9.275,97.02,65.477,27.755-17.027,28-58.14-11.077Zm20.487-15.216,64.923-21.79,24.087,37.128L488.1,819.13Zm150.334-.122,9.551,30.189-50.665,16.312L496.959,822.9Zm-7.614-47.962,27.824-9.373,22.01,76.812-25.886,8.278Zm31.839-83.873,43.466-10.834L687.159,741.1l-57.725,15.825Zm66.307,21.547,81.811-36.641L706.539,766.055Zm81.4,35.3,70.045,11.808-13.428,66.587-80.012-14.242Zm68.522,93.733,78.9,14-6.091,37.858-76.274-34.693Zm2.492-12.782,13.428-66.709,76.136,12.9-11.074,67.8Zm90.948,29.337,83.057,14.73-8.167,39.2-81.4-14.121Zm92.47,88.621,35.576,4.017-11.074,49.788-35.022-3.9Zm1.384-6.33,16.335-78.152,36.406,5.478-17.026,76.691Zm18.965-90.933,11.074-53.2c11.49,2.069,30.454,5.6,52.88,9.617l-13.151,51.127Zm13.843-65.857,13.7-65.735,87.9,10.834-11.628,71.334Zm10.936-147.295-59.248-9.373-33.5-36.032,96.208-50.032,14.258,15.338Zm31.423-74.013,61.047,13.025c-3.461,15.095-12.182,54.17-16.473,73.039l-61.462-9.738Zm-9.967-22.642-72.26-77.786,86.38,14.243Zm-82.5-92.637,14.535-79.612,103.129,13.147-18.411,82.9Zm55.371-87.525,8.444-53.2,67.83,11.2-11.213,50.275Zm4.984-75.839-27.824-4.626,8.859-44.067,28.1,2.678Zm-3.738,21.425c-2.354,14.851-6.506,41.267-8.444,53.44l-31.147-4.017,9.967-54.414Zm-38.622-28.363-53.157-8.765c0-.974.139-1.826.139-2.8a43.865,43.865,0,0,0-4.43-18.868L998.9,190.266l13.7,25.929Zm-5.676,21.06-15.919,87.525-96.623-17.042,20.626-56.605c15.919-2.435,29.486-11.078,37.237-22.885Zm-101.191-7.061c-16.058,0-29.208-11.443-29.208-25.685,0-14.121,13.012-25.685,29.208-25.685,16.058,0,29.208,11.443,29.208,25.685S915.428,261.235,899.371,261.235Zm-16.058,19.477L875.7,301.407,840.261,285.46l21.457-16.19A56.677,56.677,0,0,0,883.313,280.712Zm-36.407-54.779-52.326,5.6-11.9-67.439,55.925-7.669,24.64,44.31A46.335,46.335,0,0,0,846.906,225.933ZM713.322,160.442l-3.737-25.807,106.867-17.773,15.227,27.389Zm-2.492,13.512,5.676,32.259-42.636,4.5-4.015-31.163Zm-39.868,70.969-78.489,8.4.139-63.3,70.045-9.617Zm-76-68.291L620.16,97.263l31.008,10.347L633.311,171.4Zm-8.029,1.1-62.985,8.643L568.111,79.977,613.239,94.95Zm-67-19.234-36.13-11.2,12.735-40.05,38.76,14.121ZM476.886,145.1l-31.977-9.982-15.5-52.588,60.355,22.155Zm-42.221,7.3L333.89,160.929l-4.568-28.607,94.408-16.555Zm-99.53,58.309-49.973,5.843-6.921-37.98,47.343-4.017Zm-56.064,13.147,5.122,27.876-23.671,3.165-3.6-28.485Zm-23.118-3.774-4.983-39.2,19.934-1.7,6.921,38.224Zm-4.983,91.664-1.107,35.667c-11.766.974-35.3,2.8-44.851,3.53l1.523-34.45ZM190.062,523.323l-1.246,29.216c-8.306-.244-28.1-.852-36.407-1.217l1.523-30.311ZM156.7,508.35l36.407-51.736-2.353,53.805Zm31.839,50.64-1.523,34.693c-12.043-2.069-24.5-4.26-36.407-6.33l1.523-29.581Zm-2.076,41.267-6.091,43.458-38.483-8.765,7.752-41.023Zm-2.076,67.8,21.456,4.747-2.215,25.685-22.287-9.373Zm.969-6.452,8.444-60.135,18,3.165-5.26,61.718Zm33.5-55.753,23.394,4.017L239.2,713.589l-28.378-12.051Zm-24.5-10.834,1.523-35.667c9.552.487,35.161,1.826,47.758,2.435l-1.246,41.51C232.7,601.6,214.564,598.431,194.354,595.023Zm1.8-42.119L197.4,523.81l47.2,2.922-.831,28.485Zm1.938-42,2.769-63.422,46.235-2.922-2.077,69.265Zm3.045-70,1.107-25.442,45.681,1.1-.692,21.424Zm1.661-38.467,1.938-45.041,44.851-3.53L248.2,403.539Zm-70.322-77.908,66.861-7.182-1.523,33.963-68.384-.609Zm65.061,33.111L195.6,402.2l-71.844-1.583,4.983-43.458Zm-2.63,57.579-1.246,28.12L170.129,476.7l-48.865-54.414.969-8.886Zm-28.793,67.439L148.4,507.741l-36.545-2.313,8.444-73.891ZM146.6,520.645l-3.322,65.491c-16.058-2.8-30.454-5.234-39.867-6.939l6.921-60.865Zm-47.2-123.07-29.624-3.652,14.673-74.134,23.394,3.9Zm3.184,188.2,39.867,6.939-14.12,74.013L94.962,652.6Zm38.206,55.509,38.76,8.886L174.558,686.2l-39.175-16.555Zm37.237,70.361,79.458,33.72-3.6,11.078L143.55,779.567ZM264.26,748.16,303.3,764.716,286.132,816.33l-43.051-3.165Zm52.464,22.277,33.638,14.243-24.64,90.446-42.359-3.9ZM375.141,886.2l-3.6,16.555-98.008-2.435,7.614-22.764Zm-42.082-10.469,24.087-88.255,36.13,15.338-16.75,76.934Zm62.847-15.947L500.281,879.63l-3.737,26.294-110.051-2.8Zm67,6.087,16.2-26.537,36.268,15.338L502.5,873.422Zm44.989,12.295L522.153,857.6l46.512,19.721-6.091,30.189-58.694-1.461Zm151.441-3.043c16.058,0,29.208,11.443,29.208,25.685,0,14.121-13.012,25.685-29.208,25.685-16.058,0-29.208-11.443-29.208-25.685C630.265,886.691,643.278,875.126,659.335,875.126Zm14.673-19.721a58.091,58.091,0,0,0-14.673-1.826H657.12L631.1,763.133l58.694-16.069,13.151,28.607Zm47.758-60.5,81.95,14.608-1.246,6.33L702.94,873.3a53.165,53.165,0,0,0-7.2-7.182Zm78.9,29.7L784.2,906.776l-71.429-10.712a41.656,41.656,0,0,0-5.953-17.164ZM820.328,925.28l-5.537,21.546-65.615-8.278,12.6-21.911Zm-15.089-49.058,8.168-40.293,76.551,34.815-3.046,19.112Zm170.129,59.161-79.181-11.93,7.891-48.693,80.981,14Zm37.653,107-33.777-5.843,13.151-63.057,34.883,3.9Zm48.312,8.4-33.915-5.843,21.457-97.02,31.7,6.208Zm20.626-103.106-31.562-6.087,22.426-101.159,29.624,4.5Zm92.055,57.457-48.035,1.217-1.246-27.877,38.9-37.737C1165.984,955.469,1171.66,990.406,1174.013,1005.135Zm-11.767-72.673-37.929,36.763-5.675-121.975,27.686,4.139Zm23.118-138.287-8.859,48.692-93.855-14.121,13.012-51.005C1123.486,782.854,1155.6,788.7,1185.364,794.175Zm-44.436-101.4L1053.3,682.06l10.659-50.884,84.857,13.391Zm28.932-66.952-37.376-5.843,7.613-33.963,36.684,6.452Zm36.683,5.843-29.485-4.626,7.06-33.354,27.963,4.991Zm11.628-69.508-4.984,30.068-71.567-12.66,7.2-32.259Zm-73.644-29.094-61.047-13.025,15.781-71.091,61.324,10.1Zm37.376-83.508-79.873-13.147,13.289-60.135,78.9,14Zm40.56-410.6-8.444,51.979-32.946-.487-3.046-49.058Zm-41.805,64.518,31.146.487-16.75,102.619-25.194-.122Zm-11.351,109.436,24.779.122L1183.7,276.573l-20.764-3.409Zm-13.7,59.04-13.843-2.313-7.752-166.894,39.175.609Zm14.95-230.194,3.046,48.571-40.145-.609-2.077-45.771Zm-36.13,248.575,78.074,12.9-16.888,80.586-78.9-14Zm-7.475-23.129-71.014-11.686c2.768-14.121,7.475-38.224,9.136-46.623l59.525,5.6Zm-2.769-59.4-93.439-8.765,6.921-35.059,84.3-.73ZM1061.055,47.719l55.648-3.043,2.215,48.206-66.861-.487Zm-10.244,51.127,68.384.487,2.63,57.579-82.78.73ZM964.57,27.268l81.673,19.112-8.859,44.067L955.572,69.265Zm71.706,69.63-19.38,96.9L954.742,75.717Zm-86.379.487L995.716,184.3,945.329,210.96a51.379,51.379,0,0,0-16.058-14.73ZM935.5,46.623,905.738,188.805c-1.8-.122-3.461-.243-5.26-.365l-18.826-133.9Zm-68.383,10.1L885.943,189.9a3.626,3.626,0,0,1-1.107.243L814.652,64.518ZM763.711,22.277l49.419,88.62L764.4,119.053l-33.915-88.62Zm-40.421,9.86c7.06,18.26,28.1,73.526,33.777,88.012l-48.45,8.034L695.742,38.832Zm-24.64,130.374-57.586,7.913,16.888-60.379L692.7,121.61Zm-6.921-48.206L622.513,91.177,638.848,59.77l47.2,15.095ZM649.369,30.311l31.562,8.643,4.153,28.607-43.6-13.877ZM594.828,15.46l47.481,12.9-8.859,26.05L615.73,88.742,570.6,73.647Zm-61.6-11.078,43.882,16.069L567.7,43.215,522.153,29.337Zm-15.781,37.25,45.128,13.756L537.795,115.28,498.62,100.915ZM451.692,21.668l58.832,17.894L491.7,98.481,426.914,74.865l-5.537-18.747A258.76,258.76,0,0,0,451.692,21.668Zm-82.5,13.147L403.8,16.677l5.952,31.407a178.851,178.851,0,0,1-20.487,16.555Zm18.826,46.5a159.784,159.784,0,0,0,21.318-14.608l12.6,42.849-93.578,16.434-3.6-22.885C349.532,97.872,371.266,90.812,388.015,81.317Zm-70.46,23.007,9.136,57.214-98.007,8.278-4.845-55.875C256.508,112.48,288.762,109.558,317.555,104.324Zm-44.574-58.8,4.291,51.492c-29.208,3.165-60.77,4.382-91.778,4.5l-1.8-65.491Zm-56.617,68.535,4.983,56.24L164.73,175.05l2.907-60.5C183.695,114.671,200.029,114.549,216.364,114.062ZM146.181,31.894l22.7,2.435.692,26.537L142.72,57.944C143.55,52.1,145.212,39.563,146.181,31.894Zm23.671,35.546.969,33.963c-11.074-.122-22.149-.243-32.808-.609l4.014-36.519ZM22.7,18.625l116.28,12.417-3.461,26.051L18.549,44.188ZM17.442,50.64,47.2,53.927,38.9,95.072C27.132,94.1,17.58,93.124,10.659,92.394ZM62.985,165.068l-62.57-10.1L8.583,105.3c12.6,1.339,33.915,3.409,60.493,5.234Zm8.859-13.512,37.514-10.225,4.568,31.894-43.743-7.06Zm-.415,28.12,58.832,9.495-14.95,113.819-15.5-2.556Zm-41.805,59.77L76,230.924l16.058,68.048L37.1,289.842ZM22.149,460.753,46.789,313.58l30.454,4.991L48.173,465.014Zm33.361,5.478,13.151-65.979,30.177,3.774-7.752,68.048ZM91.64,675l73.09,30.92-49.419,97.629-44.02-3.287ZM69.214,813.165,184.8,821.808l-1.938,30.068L61.6,860.275Zm113.1,45.284-2.63,39.562-30.177-.73V860.762Zm-121.817,8.4,81.673-5.721v35.789l-86.241-2.07Zm43.6,145.713-66.169-7.791L47.9,943.661l62.57,7.548ZM49,937.209l3.461-20.816,61.6,1.582-2.769,26.9Zm84.857,78.882-22.425-2.678,6.368-61.231,23.118,2.8Zm7.752-67.561-23.256-2.8,2.907-27.511,23.81.609Zm32.946,72.308-26.025-3.043,7.06-61.6,23.948,1.217Zm-18.273-71.091,3.6-30.677,96.069,2.435,2.769,33.354Zm25.609,71.943,5.122-63.909,72.26,3.652,5.814,70.117Zm76.413-121.731-63.816-1.583,2.492-38.71,69.491,15.582Zm-26.44-39.319,7.752-34.815,42.359,3.165L268.69,868.918Zm38.9,61.231,100.5,2.557,4.291,22.764L273.535,954.86Zm3.184,39.32,102.714-7.669,6.229,32.989-106.036,10.1Zm7.891,94.1-3.876-45.649,107.282-10.225,7.475,39.2Zm111.712-91.542-7.337-39.076,129.846,3.287c-2.769,9.861-7.475,24.955-13.981,43.093ZM542.086,1046.4,493.5,1030.09c3.046-6.452,5.953-12.781,8.583-19.111l51.08,10.59Zm-34.884-47.6a650.86,650.86,0,0,0,23.948-70.482l30.454.73,29.9,44.8-31.008,35.91Zm103.129,21.3-42.082-8.643,28.793-33.355,26.578,9.617Zm15.919-38.467-24.5-8.886,28.1-32.5a52.391,52.391,0,0,0,11.489,4.991Zm15.227,1.217,14.4-34.815a31.567,31.567,0,0,0,3.461.122,60.25,60.25,0,0,0,17.027-2.435L693.8,976.893Zm18.688,53.2L666.4,986.51l30.731-3.53,21.733,38.954Zm59.8-61.231-22.7-40.658a45.367,45.367,0,0,0,14.95-25.077l42.082,6.33Zm42.913,76.812-12.874-23.007,42.913-10.834,6.921,23.616Zm102.16-27.877-58.14,15.825-6.921-23.494,69.076-17.407Zm6.368-39.076L743.5,1016.821l-19.38-34.693,21.595-37.493,129.569,16.434Zm2.492,75.839L884.143,997.1l35.991,4.382-8.444,49.423Zm79.6-20.451-33.915,8.643,8.029-46.623,33.084,4.017Z" fill="#ff7f00" opacity="0.09"/>
</svg>
